# AST/ASF file generated using VICON BodyLanguage
# -----------------------------------------------
:version 1.10
:name VICON
:units
  mass 1.0
  length 0.45
  angle deg
:documentation
   .ast/.asf automatically generated from VICON data using
   VICON BodyBuilder and BodyLanguage model FoxedUp or BRILLIANT.MOD
:root
   order TX TY TZ RX RY RZ
   axis XYZ
   position 0 0 0  
   orientation 0 0 0 
:bonedata
  begin
     id 1 
     name lhipjoint
     direction 0.61886 -0.69539 0.365302 
     length 2.20474 
     axis 0 0 0  XYZ
  end
  begin
     id 2 
     name lfemur
     direction 0.34202 -0.939693 0  
     length 6.65149  
     axis 0 0 20  XYZ
    dof rx ry rz
    limits (-160.0 20.0)
           (-70.0 70.0)
           (-60.0 70.0)
  end
  begin
     id 3 
     name ltibia
     direction 0.34202 -0.939693 0   
     length 6.35814   
     axis 0 0 20   XYZ
    dof rx
    limits (-10.0 170.0)
  end
  begin
     id 4 
     name lfoot
     direction 0.101224 -0.278109 0.955201   
     length 2.18766   
     axis -90 7.62852e-016 20   XYZ
    dof rx rz
    limits (-45.0 90.0)
           (-70.0 20.0)
  end
  begin
     id 5 
     name ltoes
     direction 1.53524e-011 -4.21877e-011 1   
     length 1.09206   
     axis -90 7.62852e-016 20   XYZ
    dof rx
    limits (-90.0 20.0)
  end
  begin
     id 6 
     name rhipjoint
     direction -0.600207 -0.708087 0.371972   
     length 2.1652  
     axis 0 0 0  XYZ 
  end
  begin
     id 7 
     name rfemur
     direction -0.34202 -0.939693 0   
     length 6.54691   
     axis 0 0 -20   XYZ
    dof rx ry rz
    limits (-160.0 20.0)
           (-70.0 70.0)
           (-70.0 60.0)
  end
  begin
     id 8 
     name rtibia
     direction -0.34202 -0.939693 0   
     length 6.37474   
     axis 0 0 -20   XYZ
    dof rx
    limits (-10.0 170.0)
 end
 begin
     id 9 
     name rfoot
     direction -0.111266 -0.3057 0.945604   
     length 2.00903  
     axis -90 -7.62852e-016 -20   XYZ
    dof rx rz
    limits (-45.0 90.0)
           (-20.0 70.0)
  end
  begin
     id 10 
     name rtoes
     direction -1.5362e-011 -4.21913e-011 1   
     length 1.00221   
     axis -90 -7.62852e-016 -20   XYZ
    dof rx
    limits (-90.0 20.0)
  end
  begin
     id 11 
     name lowerback
     direction -0.0224561 0.999731 -0.00577314   
     length 2.10409   
     axis 0 0 0   XYZ
    dof rx ry rz
    limits (-20.0 45.0)
           (-30.0 30.0)
           (-30.0 30.0)
  end
  begin
     id 12 
     name upperback
     direction 0.0213126 0.999185 -0.0342817   
     length 2.09783   
     axis 0 0 0   XYZ
    dof rx ry rz
    limits (-20.0 45.0)
           (-30.0 30.0)
           (-30.0 30.0)
  end
  begin
     id 13 
     name thorax
     direction 0.0312356 0.999036 -0.0308451   
     length 2.09788   
     axis 0 0 0   XYZ
    dof rx ry rz
    limits (-20.0 45.0)
           (-30.0 30.0)
           (-30.0 30.0)
  end
  begin
     id 14 
     name lowerneck
     direction -0.0114419 0.996481 0.0830329   
     length 1.38575   
     axis 0 0 0   XYZ
    dof rx ry rz
    limits (-20.0 45.0)
           (-30.0 30.0)
           (-30.0 30.0)
  end
  begin
     id 15 
     name upperneck
     direction -0.0075675 0.996187 -0.0869092   
     length 1.39401   
     axis 0 0 0   XYZ
    dof rx ry rz
    limits (-20.0 45.0)
           (-30.0 30.0)
           (-30.0 30.0)
  end
  begin
     id 16
     name head
     direction -0.00222073 0.999264 -0.0382974  
     length 1.3964  
     axis 0 0 0   XYZ
    dof rx ry rz
    limits (-20.0 45.0)
           (-30.0 30.0)
           (-30.0 30.0)
  end
  begin
     id 17 
     name lclavicle
     direction 0.965962 0.222138 0.132556  
     length 2.81514  
     axis 0 0 0   XYZ
    dof ry rz
    limits (-20.0 10.0)
           (0.0 20.0)
  end
  begin
     id 18 
     name lhumerus
     direction 1 -4.48972e-011 7.03471e-018   
     length 4.47366   
     axis 180 -30 -90   XYZ
    dof rx ry rz
    limits (-60.0 90.0)
           (-90.0 90.0)
           (-90.0 90.0)
  end
  begin
     id 19
     name lradius
     direction 1 -4.48951e-011 -6.22192e-028   
     length 3.19948   
     axis 180 -30 -90   XYZ
    dof rx
    limits (-10.0 170.0)
  end
  begin
     id 20
     name lwrist
     direction 1 -4.48967e-011 -1.24264e-027   
     length 1.59974   
     axis 1.40095e-015 90 90   XYZ
    dof ry
    limits (-180.0 0.0)
 end
  begin
     id 21 
     name lhand
     direction 1 -4.4897e-011 -2.48528e-027   
     length 0.492667   
     axis 1.58582e-015 90 90   XYZ
    dof rx rz
    limits (-90.0 90.0)
           (-45.0 45.0)
  end
  begin
     id 22 
     name lfingers
     direction 1 -4.48996e-011 -4.97056e-027   
     length 0.397201   
     axis 3.17164e-015 90 90   XYZ
    dof rx
    limits (0.0 90.0)
  end
  begin
     id 23
     name lthumb
     direction 0.707107 -6.34981e-011 0.707107   
     length 0.570303   
     axis -90 45 2.85299e-015   XYZ
    dof rx rz
    limits (-45.0 45.0)
           (-45.0 45.0)
  end
  begin
     id 24 
     name rclavicle
     direction -0.961164 0.229034 0.153972   
     length 3.09348  
     axis 0 0 0   XYZ 
    dof ry rz
    limits (-10.0 20.0)
           (-20.0 0.0)
  end
  begin
     id 25 
     name rhumerus
     direction -1 -4.48971e-011 -9.06263e-028  
     length 4.3269   
     axis 180 30 90   XYZ
    dof rx ry rz
    limits (-90.0 60.0)
           (-90.0 90.0)
           (-90.0 90.0)
  end
  begin
     id 26 
     name rradius
     direction -1 -4.48953e-011 1.44659e-027   
     length 3.1896   
     axis 180 30 90   XYZ
    dof rx
    limits (-10.0 170.0)
  end
  begin
     id 27 
     name rwrist
     direction -1 -4.48988e-011 -1.24264e-027   
     length 1.5948   
     axis 1.40095e-015 -90 -90   XYZ
    dof ry
    limits (-180.0 0.0)
  end
  begin
     id 28
     name rhand
     direction -1 -4.49033e-011 -2.48528e-027   
     length 0.464496   
     axis 1.58582e-015 -90 -90   XYZ
    dof rx rz
    limits (-90.0 90.0)
           (-45.0 45.0)
  end
  begin
     id 29
     name rfingers
     direction -1 -4.48905e-011 -4.97056e-027   
     length 0.374489   
     axis 3.17164e-015 -90 -90   XYZ
    dof rx
    limits (0.0 90.0)
  end
  begin
     id 30
     name rthumb
     direction -0.707107 -6.34909e-011 0.707107   
     length 0.537693   
     axis -90 -45 -2.85299e-015   XYZ
    dof rx rz
    limits (-45.0 45.0)
           (-45.0 45.0)
  end
:hierarchy
  begin
    root lhipjoint rhipjoint lowerback
    lhipjoint lfemur
    lfemur ltibia
    ltibia lfoot
    lfoot ltoes
    rhipjoint rfemur
    rfemur rtibia
    rtibia rfoot
    rfoot rtoes
    lowerback upperback
    upperback thorax
    thorax lowerneck lclavicle rclavicle
    lowerneck upperneck
    upperneck head
    lclavicle lhumerus
    lhumerus lradius
    lradius lwrist
    lwrist lhand lthumb
    lhand lfingers
    rclavicle rhumerus
    rhumerus rradius
    rradius rwrist
    rwrist rhand rthumb
    rhand rfingers
  end

#!OML:ASF G:\acrobat\cartwheel_test 2\Patient 1\Session 2\acrobat4.ASF
:FULLY-SPECIFIED
:DEGREES
2051
root 9.5253 20.6222 9.94167 370.615 -176.532 359.656
lowerback -0.4393 -0.138551 -1.22092
upperback 1.01411 -0.299274 3.23669
thorax 1.31027 -0.219062 4.01074
lowerneck -13.4819 -2.97916 -4.09314
upperneck 26.3657 -5.11115 1.17208
head 10.8482 -3.13215 0.337784
rclavicle 7.7526e-015 2.3059e-014
rhumerus -5.80796 -22.3859 1.38513
rradius 36.2648
rwrist 18.5981
rhand -28.7594 -33.4878
rfingers 7.12502
rthumb -2.11936 296.543
lclavicle 7.7526e-015 2.3059e-014
lhumerus -6.36334 25.602 -2.55783
lradius 70.0468
lwrist 13.665
lhand -24.4757 722.602
lfingers 7.12502
lthumb 2.01796 -687.428
rfemur -41.0132 -0.536734 25.889
rtibia 52.7181
rfoot -19.8148 -16.2089
rtoes -34.9603
lfemur -10.3332 -3.89575 -30.0134
ltibia 36.6652
lfoot -37.275 17.3859
ltoes -30.7745
2052
root 9.53737 20.6054 9.88894 370.475 -176.588 359.934
lowerback -0.509789 -0.106529 -1.09516
upperback 1.00537 -0.274397 3.4499
thorax 1.3396 -0.212718 4.16121
lowerneck -13.853 -2.91321 -4.02377
upperneck 26.5922 -4.85207 0.566135
head 10.9807 -3.07878 0.132044
rclavicle -3.18055e-015 9.54166e-015
rhumerus -4.32372 -24.0485 2.38894
rradius 35.9853
rwrist 19.0283
rhand -28.7051 -33.5206
rfingers 7.12502
rthumb -2.06686 296.51
lclavicle -3.18055e-015 9.54166e-015
lhumerus -6.4562 25.51 -2.20949
lradius 66.5558
lwrist 14.256
lhand -23.1575 723.309
lfingers 7.12502
lthumb 3.29101 -686.737
rfemur -40.8225 -0.734442 26.2414
rtibia 52.9069
rfoot -20.3404 -15.8707
rtoes -35.0937
lfemur -10.0168 -4.24159 -29.7901
ltibia 36.8488
lfoot -37.7921 17.5203
ltoes -30.1997
2053
root 9.54389 20.5825 9.83076 370.398 -176.665 360.186
lowerback -0.620316 -0.0501447 -0.963459
upperback 0.94997 -0.222162 3.7303
thorax 1.34151 -0.194107 4.37897
lowerneck -14.0818 -2.84439 -3.83542
upperneck 26.6439 -4.55061 -0.249708
head 11.0126 -3.01894 -0.157775
rclavicle 1.19271e-015 -1.43125e-014
rhumerus -3.1094 -25.11 3.53982
rradius 35.761
rwrist 18.7316
rhand -29.3246 -34.8489
rfingers 7.12502
rthumb -2.66519 295.188
lclavicle 1.19271e-015 -1.43125e-014
lhumerus -6.60029 25.3406 -1.95841
lradius 63.2039
lwrist 15.3476
lhand -22.7917 723.654
lfingers 7.12502
lthumb 3.64427 -686.397
rfemur -40.6676 -0.836455 26.4886
rtibia 53.0829
rfoot -20.7147 -15.6954
rtoes -35.1282
lfemur -9.70188 -4.68592 -29.6363
ltibia 36.9475
lfoot -38.1715 17.7756
ltoes -29.833
2054
root 9.54163 20.5673 9.76736 370.388 -176.691 360.307
lowerback -0.818308 -0.0275605 -0.912586
upperback 0.883616 -0.220637 4.0724
thorax 1.38607 -0.204541 4.70678
lowerneck -14.1079 -2.80242 -3.77682
upperneck 26.5455 -4.27227 -1.04354
head 10.9562 -2.98199 -0.414034
rclavicle 3.97569e-015 4.05521e-014
rhumerus -2.11445 -25.5112 4.77359
rradius 35.6056
rwrist 17.9146
rhand -30.3607 -38.1195
rfingers 7.12502
rthumb -3.66577 291.932
lclavicle 3.97569e-015 4.05521e-014
lhumerus -6.71935 25.2212 -1.79639
lradius 59.8358
lwrist 16.6834
lhand -23.0464 724.241
lfingers 7.12502
lthumb 3.39833 -685.806
rfemur -40.5736 -1.03127 26.5577
rtibia 53.317
rfoot -21.2715 -15.3824
rtoes -34.8111
lfemur -9.3883 -5.17253 -29.6558
ltibia 36.9538
lfoot -38.3754 18.1833
ltoes -29.6781
2055
root 9.53132 20.5638 9.69856 370.334 -176.663 360.5
lowerback -0.973071 -0.00911992 -0.743517
upperback 0.851646 -0.23965 4.48648
thorax 1.44366 -0.229828 5.04329
lowerneck -14.3274 -2.78393 -3.84776
upperneck 26.6133 -4.04273 -1.68681
head 11.0108 -2.96706 -0.610094
rclavicle 2.98177e-015 1.59028e-014
rhumerus -1.20379 -26.155 5.7809
rradius 35.2848
rwrist 17.5183
rhand -30.7432 -40.4049
rfingers 7.12502
rthumb -4.03512 289.654
lclavicle 2.98177e-015 1.59028e-014
lhumerus -6.70475 25.2525 -1.7574
lradius 56.476
lwrist 18.1736
lhand -23.1787 725.138
lfingers 7.12502
lthumb 3.27048 -684.907
rfemur -40.3108 -1.18742 26.6833
rtibia 53.6121
rfoot -22.164 -14.9688
rtoes -34.4583
lfemur -8.98412 -5.67317 -29.6257
ltibia 36.8842
lfoot -38.4241 18.6426
ltoes -29.4537
